<svg width="31" height="32" viewBox="0 0 31 32" fill="none" xmlns="http://www.w3.org/2000/svg">
<g clip-path="url(#clip0_4369_5875)">
<path d="M0.665528 15.8086C0.664802 18.4972 1.3505 21.1224 2.65435 23.4363L5.00024 26.5001L8.43802 29.2209C10.6223 30.4391 13.0696 31.0775 15.5565 31.0776H15.5631C23.7729 31.0776 30.456 24.2332 30.4595 15.8206C30.4611 11.7441 28.9129 7.91076 26.1001 5.02679C23.2878 2.14307 19.5476 0.554107 15.5625 0.552246C7.3516 0.552246 0.668918 7.39628 0.665528 15.8086Z" fill="url(#paint0_linear_4369_5875)"/>
<path d="M0.133302 15.8035C0.132454 18.5889 0.842731 21.308 2.19307 23.7048C2.19307 23.7048 3.45357 25.7348 4.5 26.8353C5.75526 28.1556 8.18411 29.6967 8.18411 29.6967C10.4381 30.9558 12.9758 31.6196 15.5581 31.6206H15.5647C24.0692 31.6206 30.9923 24.53 30.9959 15.8162C30.9973 11.5932 29.3935 7.62208 26.4802 4.63479C23.5666 1.64788 19.6926 0.00173643 15.5647 0C7.05883 0 0.136691 7.08961 0.133302 15.8035ZM5.005 23.292L4.69956 22.7953C3.41556 20.7036 2.73785 18.2865 2.73882 15.8045C2.74148 8.56174 8.49488 2.66915 15.5696 2.66915C18.9956 2.67064 22.2154 4.03895 24.6372 6.52155C27.0588 9.0044 28.3913 12.3049 28.3905 15.8152C28.3873 23.058 22.6338 28.9513 15.5647 28.9513H15.5596C13.2579 28.9501 11.0004 28.3168 9.03167 27.12L8.56316 26.8353L6.34806 25.5L5.005 23.292Z" fill="url(#paint1_linear_4369_5875)"/>
<path d="M11.7083 9.19662C11.4194 8.53888 11.1155 8.52561 10.8408 8.51407C10.6158 8.50415 10.3587 8.5049 10.1018 8.5049C9.84466 8.5049 9.42687 8.604 9.07373 8.99904C8.72023 9.39445 7.72412 10.35 7.72412 12.2934C7.72412 14.2369 9.10581 16.1152 9.29842 16.379C9.49128 16.6423 11.9658 20.7582 15.8849 22.3415C19.1419 23.6574 19.8048 23.3957 20.5116 23.3297C21.2187 23.264 22.793 22.3744 23.1141 21.452C23.4356 20.5297 23.4356 19.7391 23.3392 19.5739C23.2428 19.4093 22.9857 19.3105 22.6001 19.113C22.2145 18.9156 20.3188 17.9598 19.9654 17.8279C19.6119 17.6962 19.3549 17.6305 19.0977 18.026C18.8406 18.4209 18.1022 19.3105 17.8772 19.5739C17.6524 19.838 17.4273 19.8708 17.0419 19.6733C16.656 19.4751 15.4143 19.0584 13.9411 17.7128C12.7948 16.6658 12.021 15.3727 11.7961 14.9772C11.5711 14.5823 11.772 14.3682 11.9653 14.1714C12.1386 13.9944 12.351 13.7101 12.544 13.4795C12.7363 13.2488 12.8004 13.0842 12.929 12.8208C13.0577 12.5571 12.9933 12.3264 12.897 12.1288C12.8004 11.9313 12.0512 9.97764 11.7083 9.19662Z" fill="white"/>
</g>
<defs>
<linearGradient id="paint0_linear_4369_5875" x1="1496.47" y1="3079.56" x2="1496.47" y2="0.552246" gradientUnits="userSpaceOnUse">
<stop stop-color="#1FAF38"/>
<stop offset="1" stop-color="#60D669"/>
</linearGradient>
<linearGradient id="paint1_linear_4369_5875" x1="1549.61" y1="3189.42" x2="1549.61" y2="0" gradientUnits="userSpaceOnUse">
<stop stop-color="#1FAF38"/>
<stop offset="1" stop-color="#60D669"/>
</linearGradient>
<clipPath id="clip0_4369_5875">
<rect width="31" height="32" fill="white"/>
</clipPath>
</defs>
</svg>
