<svg width="25" height="24" viewBox="0 0 25 24" fill="none" xmlns="http://www.w3.org/2000/svg">
<path d="M20.4959 10.6211V19C20.4959 20.1046 19.6009 21 18.4969 21H6.50306C5.39906 21 4.50408 20.1046 4.50408 19V10.6211M8.0023 8.75L8.50204 3M8.0023 8.75C8.0023 11.6518 12.5 11.6518 12.5 8.75M8.0023 8.75C8.0023 11.9258 2.84736 11.2707 3.56933 8.50173L4.61399 4.49516C4.84361 3.6145 5.63856 3 6.54823 3H18.4518C19.3614 3 20.1564 3.6145 20.386 4.49516L21.4307 8.50173C22.1526 11.2707 16.9977 11.9258 16.9977 8.75M12.5 8.75V3M12.5 8.75C12.5 11.6518 16.9977 11.6518 16.9977 8.75M16.9977 8.75L16.498 3" stroke="#2E2E2E" stroke-width="1.5" stroke-linecap="round" stroke-linejoin="round"/>
</svg>
