<svg width="24" height="24" viewBox="0 0 24 24" fill="none" xmlns="http://www.w3.org/2000/svg">
<path d="M3 21L7.63072 16.3688M7.63489 16.3645C7.3722 16.1025 5.89858 14.6285 4.85508 13.5847C3.90112 12.6304 4.86107 10.5879 6.16529 10.5056C7.34328 10.4313 10.0698 10.8582 10.9765 9.9514L13.4664 7.46125C14.0843 6.84326 13.6922 5.46086 13.6516 4.69859C13.5942 3.68271 15.2097 2.42782 16.0666 3.28486L20.7143 7.933C21.574 8.79056 20.3148 10.402 19.3007 10.3482C18.5385 10.3076 17.1562 9.91553 16.5383 10.5335L14.0484 13.0237C13.1419 13.9303 13.5686 16.6562 13.4943 17.8341C13.4119 19.1386 11.3688 20.0989 10.4147 19.1446C9.37118 18.101 7.89757 16.6272 7.63489 16.3645Z" stroke="#2E2E2E" stroke-width="1.5" stroke-linecap="round" stroke-linejoin="round"/>
</svg>
