<svg width="201" height="48" viewBox="0 0 201 48" fill="none" xmlns="http://www.w3.org/2000/svg">
<path d="M48.8602 4.64516V0.688172V0H8.30669C-3.06709 0 -2.46663 16.399 8.30669 16.399H41.2288C44.8211 16.399 44.8196 22.2558 41.2288 22.2558C37.6381 22.2558 0.172043 22.1935 0.172043 22.1935L0.172043 27.5269H41.2288C51.404 27.5269 51.404 11.1279 41.2288 11.1279H8.30669C4.11736 11.1279 4.1163 4.68543 8.30669 4.68543C12.4971 4.68543 48.8602 4.64516 48.8602 4.64516Z" fill="#EB4C60"/>
<path d="M55.0538 4.78728V0H105.32V4.78728H82.5806V27.5269H77.195V4.78728H55.0538Z" fill="#EB4C60"/>
<path d="M111.514 4.78728V0H148.615V4.78728H132.458V22.7396H148.615V27.5269H111.514V22.7396H127.072V4.78728H111.514Z" fill="#EB4C60"/>
<path d="M159.494 0H154.809V19.3274C154.809 24.5985 157.737 27.5269 162.423 27.5269H200.492V22.8414H162.423C160.08 22.8414 159.494 21.6701 159.494 19.3274V0Z" fill="#EB4C60"/>
<path fill-rule="evenodd" clip-rule="evenodd" d="M56.5987 48L58.3191 48V44.043C58.3191 44.043 66.9213 44.0429 70.1901 44.043C73.4589 44.043 73.4589 38.5376 70.1901 38.5376H56.5987V48ZM58.3191 42.4947V40.258H70.1901C71.5664 40.258 71.5664 42.4947 70.1901 42.4947H58.3191Z" fill="#2E2E2E"/>
<path fill-rule="evenodd" clip-rule="evenodd" d="M74.7062 38.5376V48H76.4267V44.043H86.7492C87.9537 44.043 89.158 45.2473 89.1578 46.6236C89.1577 48 89.1578 48 89.1578 48H90.7062V46.6236C90.7062 45.4193 90.018 43.6989 89.3299 43.6989L88.6417 43.8709C89.3299 43.6989 88.6417 43.8709 89.3299 43.6989C91.9105 43.0107 91.2223 38.5377 88.2978 38.5377L74.7062 38.5376ZM76.4267 40.258V42.4947H88.2978C89.6741 42.4947 89.674 40.258 88.2976 40.258H76.4267Z" fill="#2E2E2E"/>
<path d="M92.9927 40.258V38.5376H105.724V40.258H100.218V46.2795H105.724V48H92.9927V46.2795H98.4981V40.258H92.9927Z" fill="#2E2E2E"/>
<path d="M109.509 41.2903V48H107.788V41.2903C107.788 39.2258 108.649 38.5376 110.713 38.5376H121.036C123.1 38.5376 124.132 39.2258 124.132 41.2903V48H122.412V41.2903C122.412 40.4301 121.896 40.086 121.036 40.086H110.713C109.853 40.086 109.509 40.4301 109.509 41.2903Z" fill="#2E2E2E"/>
<path d="M126.197 40.086V38.5376H143.401V40.086H135.659V48H133.939V40.086H126.197Z" fill="#2E2E2E"/>
</svg>
