<svg width="157" height="157" viewBox="0 0 157 157" fill="none" xmlns="http://www.w3.org/2000/svg">
<rect width="157" height="157" rx="78.5" fill="white"/>
<rect x="4.09568" y="4.09568" width="148.581" height="148.581" rx="74.2906" stroke="#EB4C60" stroke-width="3.64058"/>
<path d="M44.5973 66.7819V64.1653V63.7102H17.7801C10.2589 63.7102 10.656 74.5545 17.7801 74.5545H39.5508C41.9263 74.5545 41.9253 78.4274 39.5508 78.4274C37.1763 78.4274 12.4009 78.3863 12.4009 78.3863L12.4009 81.9131H39.5508C46.2794 81.9131 46.2794 71.0688 39.5508 71.0688H17.7801C15.0098 71.0688 15.0091 66.8086 17.7801 66.8086C20.5511 66.8086 44.5973 66.7819 44.5973 66.7819Z" fill="#EB4C60"/>
<path d="M48.6924 66.8759V63.7102H81.9325V66.8759H66.8953V81.9131H63.3338V66.8759H48.6924Z" fill="#EB4C60"/>
<path d="M86.0283 66.8759V63.7102H110.563V66.8759H99.8784V78.7474H110.563V81.9131H86.0283V78.7474H96.3169V66.8759H86.0283Z" fill="#EB4C60"/>
<path d="M117.757 63.7102H114.658V76.491C114.658 79.9766 116.595 81.9131 119.693 81.9131H144.867V78.8147H119.693C118.144 78.8147 117.757 78.0401 117.757 76.491V63.7102Z" fill="#EB4C60"/>
<path fill-rule="evenodd" clip-rule="evenodd" d="M49.877 95.4513L51.0146 95.4513V92.8347C51.0146 92.8347 56.703 92.8346 58.8646 92.8347C61.0262 92.8347 61.0262 89.1941 58.8646 89.1941H49.877V95.4513ZM51.0146 91.8108V90.3318H58.8646C59.7748 90.3318 59.7748 91.8108 58.8646 91.8108H51.0146Z" fill="black"/>
<path fill-rule="evenodd" clip-rule="evenodd" d="M61.8506 89.1941V95.4513H62.9883V92.8347H69.8144C70.6108 92.8347 71.4072 93.631 71.4071 94.5412C71.407 95.4513 71.4071 95.4513 71.4071 95.4513H72.431V94.5412C72.431 93.7448 71.9759 92.6071 71.5209 92.6071L71.0658 92.7209C71.5209 92.6071 71.0658 92.7209 71.5209 92.6071C73.2274 92.1521 72.7723 89.1941 70.8384 89.1941L61.8506 89.1941ZM62.9883 90.3318V91.8108H70.8384C71.7485 91.8108 71.7484 90.3318 70.8383 90.3318H62.9883Z" fill="black"/>
<path d="M73.9434 90.3318V89.1941H82.3622V90.3318H78.7216V94.3137H82.3622V95.4513H73.9434V94.3137H77.5839V90.3318H73.9434Z" fill="black"/>
<path d="M84.8652 91.0144V95.4513H83.7275V91.0144C83.7275 89.6492 84.2964 89.1941 85.6616 89.1941H92.4877C93.8529 89.1941 94.5355 89.6492 94.5355 91.0144V95.4513H93.3978V91.0144C93.3978 90.4455 93.0565 90.218 92.4877 90.218H85.6616C85.0928 90.218 84.8652 90.4455 84.8652 91.0144Z" fill="black"/>
<path d="M95.9004 90.218V89.1941H107.277V90.218H102.158V95.4513H101.02V90.218H95.9004Z" fill="black"/>
</svg>
