<svg width="1028" height="344" viewBox="0 0 1028 344" fill="none" xmlns="http://www.w3.org/2000/svg">
<ellipse cx="563.682" cy="402.058" rx="152.55" ry="152.535" transform="rotate(90 563.682 402.058)" fill="white" fill-opacity="0.1"/>
<ellipse cx="873.539" cy="92.8082" rx="153.4" ry="153.385" transform="rotate(90 873.539 92.8082)" fill="white" fill-opacity="0.1"/>
<path opacity="0.1" d="M257.022 246.479C277.244 246.479 297.267 242.495 315.949 234.756C334.631 227.017 351.606 215.673 365.905 201.373C380.204 187.073 391.546 170.096 399.285 151.412C407.023 132.728 411.006 112.703 411.006 92.4797C411.006 72.2563 407.023 52.2309 399.285 33.5469C391.546 14.8629 380.204 -2.11383 365.905 -16.4139C351.606 -30.714 334.631 -42.0575 315.949 -49.7967C297.267 -57.5358 277.244 -61.5191 257.022 -61.5191L257.022 92.4797L257.022 246.479Z" fill="white"/>
<rect opacity="0.2" x="719.018" y="-61.4219" width="307.894" height="307.868" transform="rotate(90 719.018 -61.4219)" fill="white"/>
<path d="M1026.88 246.473L862.866 406.013L719.015 554.367L719.015 246.473L1026.88 246.473Z" fill="white" fill-opacity="0.15"/>
<mask id="mask0_4382_14565" style="mask-type:alpha" maskUnits="userSpaceOnUse" x="0" y="-212" width="1028" height="767">
<path d="M0 -175.649C0 -195.725 16.2748 -212 36.3507 -212H991.163C1011.24 -212 1027.51 -195.725 1027.51 -175.649V518.649C1027.51 538.725 1011.24 555 991.163 555H36.3507C16.2748 555 0 538.725 0 518.649V-175.649Z" fill="#4A3AFF"/>
</mask>
<g mask="url(#mask0_4382_14565)">
</g>
</svg>
