<svg width="289" height="281" viewBox="0 0 289 281" fill="none" xmlns="http://www.w3.org/2000/svg">
<ellipse cx="232.236" cy="218.51" rx="61.8032" ry="62.8443" transform="rotate(90 232.236 218.51)" fill="white" fill-opacity="0.1"/>
<path opacity="0.1" d="M169.392 -31.0723C169.392 -22.911 171.026 -14.8296 174.202 -7.28948C177.378 0.250599 182.033 7.10169 187.901 12.8726C193.769 18.6435 200.735 23.2213 208.403 26.3445C216.07 29.4677 224.287 31.0752 232.586 31.0752C240.885 31.0752 249.102 29.4677 256.769 26.3445C264.436 23.2213 271.403 18.6435 277.271 12.8726C283.139 7.10167 287.794 0.250579 290.97 -7.28951C294.146 -14.8296 295.78 -22.911 295.78 -31.0723L232.586 -31.0723L169.392 -31.0723Z" fill="white"/>
<path opacity="0.1" d="M105.893 155.479C114.224 155.479 122.474 153.866 130.171 150.73C137.868 147.595 144.862 142.999 150.753 137.206C156.644 131.412 161.317 124.535 164.505 116.965C167.693 109.396 169.334 101.283 169.334 93.0894C169.334 84.8962 167.693 76.7832 164.505 69.2137C161.317 61.6442 156.644 54.7664 150.753 48.9729C144.861 43.1795 137.868 38.5839 130.171 35.4485C122.474 32.3131 114.224 30.6993 105.893 30.6993L105.893 93.0894L105.893 155.479Z" fill="white"/>
<rect opacity="0.2" x="296.234" y="30.7383" width="124.738" height="126.841" transform="rotate(90 296.234 30.7383)" fill="white"/>
<mask id="mask0_4382_15647" style="mask-type:alpha" maskUnits="userSpaceOnUse" x="0" y="-31" width="424" height="312">
<path d="M0 6.08608C0 -13.9899 16.2748 -30.2646 36.3507 -30.2646H386.983C407.059 -30.2646 423.334 -13.9899 423.334 6.08606V244.122C423.334 264.198 407.059 280.473 386.983 280.473H36.3507C16.2748 280.473 0 264.198 0 244.122V6.08608Z" fill="#4A3AFF"/>
</mask>
<g mask="url(#mask0_4382_15647)">
</g>
</svg>
